<?xml version="1.0"?><svg xmlns="http://www.w3.org/2000/svg" version="1.2" baseProfile="tiny-ps" width="512" height="512" viewBox="0 0 512 512"><title>@phybozz.dev</title><rect width="512" height="512" fill="#000"/><path fill="#fff" fill-rule="evenodd" d="M134.169,361.945a21.07,21.07,0,0,0,0-30.271q-6.416-6.165-16.432-6.166t-16.631,6.166a20.628,20.628,0,0,0,0,30.271q6.612,6.165,16.631,6.166T134.169,361.945Zm0-152.1a21.068,21.068,0,0,0,0-30.27q-6.416-6.166-16.432-6.166t-16.631,6.166a20.626,20.626,0,0,0,0,30.27q6.612,6.166,16.631,6.166T134.169,209.847Zm137.06,156.4q48.89,0,80.954-15.695t47.49-44.845Q415.1,276.553,415.1,236.193q0-41.1-15.429-70.443t-47.49-45.219q-32.067-15.879-80.954-15.882H188.672V366.242h82.557ZM222.336,130.808h48.091q40.475,0,64.723,12.706t34.666,36.25q10.418,23.542,10.42,56.429,0,32.145-10.42,55.495T335.15,327.564q-24.252,12.525-64.723,12.519H222.336V130.808Z"/></svg>
